<svg xmlns="http://www.w3.org/2000/svg" viewBox="0 0 1463.19713 361.15225"><defs><style>.cls-1{fill:#d8a04e;}.cls-2{fill:#5588b5;}.cls-3{fill:#686868;}</style></defs><title>os_logo</title><g id="sun"><path class="cls-1" d="M291.00309,103.76867l.027-.0077.27521.10029a96.54235,96.54235,0,1,0-96.66565,162.80266s7.06065-116.74154,96.66565-162.80266Z" transform="translate(-13.35514 -17.29649)"/></g><g id="rays"><path class="cls-1" d="M287.79434,93.02215S274.17451,79.425,272.24612,79.77737c0,0,26.80259-32.7561,48.49529-33.10457C320.74141,46.6728,286.95245,86.29858,287.79434,93.02215Z" transform="translate(-13.35514 -17.29649)"/><path class="cls-1" d="M253.89934,73.89126,235.80749,70.3357s4.70335-24.17726,19.9346-29.75474C255.74209,40.581,247.52944,71.9737,253.89934,73.89126Z" transform="translate(-13.35514 -17.29649)"/><path class="cls-1" d="M216.876,72.67381s-19.20748,1.20662-20.22,2.88525c0,0-16.0325-41.77324-1.933-58.26257C194.72307,17.29649,211.27937,68.85376,216.876,72.67381Z" transform="translate(-13.35514 -17.29649)"/><path class="cls-1" d="M146.989,106.98433S133.4449,120.657,133.80481,122.584c0,0-32.86017-26.6749-33.29307-48.36607C100.51174,74.21791,140.26873,107.85238,146.989,106.98433Z" transform="translate(-13.35514 -17.29649)"/><path class="cls-1" d="M115.94207,179.79364s2.65307,19.06159,4.40333,19.94447c0,0-41.1402,9.941-58.64681-2.87354C61.69859,196.86457,112.55539,185.66267,115.94207,179.79364Z" transform="translate(-13.35514 -17.29649)"/><path class="cls-1" d="M179.37338,78.37873,164.03132,88.60508S150.331,68.13649,157.2075,53.4459C157.2075,53.4459,173.50253,81.507,179.37338,78.37873Z" transform="translate(-13.35514 -17.29649)"/><path class="cls-1" d="M125.2175,147.08361l-4.66837,17.83714s-23.83985-6.19055-28.464-21.73777C92.08508,143.183,122.90941,153.32263,125.2175,147.08361Z" transform="translate(-13.35514 -17.29649)"/><path class="cls-1" d="M129.59949,220.00439l9.07067,16.05242s-21.4205,12.15828-35.56574,4.2203C103.10442,240.27711,132.28761,226.08935,129.59949,220.00439Z" transform="translate(-13.35514 -17.29649)"/><path class="cls-1" d="M153.32843,252.95438l15.7865,9.52594s-12.68483,21.113-28.90512,21.14773C140.20981,283.628,158.65908,256.93393,153.32843,252.95438Z" transform="translate(-13.35514 -17.29649)"/></g><g id="Layer_6" data-name="Layer 6"><path class="cls-2" d="M370.21546,117.40949c-50.75363,9.49587-80.58726,49.95319-95.51543,77.93414a124.43284,124.43284,0,0,0-12.326,34.49673c-7.04106,25.16772-24.86561,79.71931-53.72713,108.73637-36.76109,32.02636-78.60056,38.36565-78.60056,38.36565,44.27882,6.34861,84.87591-9.42373,84.87591-9.42373,63.03981-25.62594,99.42864-115.82924,99.42864-115.82924,46.12669-111.72909,176.819-113.77917,176.819-113.77917C442.99312,98.95882,370.21546,117.40949,370.21546,117.40949Z" transform="translate(-13.35514 -17.29649)"/><path class="cls-2" d="M72.56887,343.3538c29.903.05724,55.52946-14.587,75.70187-32.53562,2.40963-2.47839,23.63831-24.57482,29.29591-39.43655-71.908,78.088-126.496,35.713-126.496,35.713-35.88294-34.03095,14.30654-60.706,14.30654-60.706-46.4639,14.4328-51.45883,42.29093-51.45883,42.29093C6.62556,341.01343,72.56887,343.3538,72.56887,343.3538Z" transform="translate(-13.35514 -17.29649)"/><path class="cls-2" d="M435.5265,93.53944l-.0371-.01333c1.2136-.031,1.866-.03416,1.866-.03416-87.12356-42.61476-159.368,16.25333-169.86468,25.46515q-1.61292,1.26176-3.17734,2.55471a92.7529,92.7529,0,0,0-11.76554,10.7415C216.88394,168.21,203.03849,215.602,197.74313,243.64243c-4.53427,14.89577-14.63894,39.03326-36.8685,67.42256-30.24443,30.29735-61.91849,40.45382-87.90748,42.3097-31.13039,1.4357-54.85208-7.89437-54.85208-7.89437.19063.10461.38076.19989.57132.3035-1.71673-.66217-2.63-1.08479-2.63-1.08479C51.90733,371.7989,132.008,366.28244,132.008,366.28244c45.324-6.45954,74.20918-40.118,92.10723-69.80365a195.34219,195.34219,0,0,0,17.19822-41.34c22.46981-92.1327,71.35047-123.14381,71.35047-123.14381l-.06682-.44654.024.04492C356.46022,94.63492,435.5265,93.53944,435.5265,93.53944Z" transform="translate(-13.35514 -17.29649)"/></g><g id="Layer_5" data-name="Layer 5"><path class="cls-3" d="M432.16466,226.424h10.15578l-1.69472,12.81q12.55572-14.92885,29.22058-14.92911,12.7847,0,20.62187,7.83092,7.83719,7.83043,7.83844,21.07033a152.716,152.716,0,0,1-1.69222,17.79351l-5.10766,37.77023H481.12121l5.10767-37.76322a148.26039,148.26039,0,0,0,1.63866-17.8831q0-8.65326-5.24331-13.96764-5.2433-5.31464-13.75592-5.31488a30.30048,30.30048,0,0,0-26.6755,16.0067q-3.952,7.377-6.06564,23.33913l-4.71477,35.583H421.02689Z" transform="translate(-13.35514 -17.29649)"/><path class="cls-3" d="M539.717,195.62032h10.364L545.97786,226.424h16.58078l-1.21072,9.23385H544.74761l-9.74085,73.112H524.413l9.889-73.112h-14.1273l1.2868-9.23385h14.08927Z" transform="translate(-13.35514 -17.29649)"/><path class="cls-3" d="M649.52116,308.76985h-10.6753l1.62865-12.38053q-14.27269,14.50018-32.66306,14.49968-16.73445,0-27.51185-10.823-10.77791-10.823-10.77791-27.85219a46.21089,46.21089,0,0,1,14.05272-33.7937q14.05274-14.1143,33.07-14.11529a36.64335,36.64335,0,0,1,18.06728,4.30686q7.76587,4.3071,13.06273,13.44961l1.90392-15.63733h10.98062Zm-40.527-7.56866a36.55488,36.55488,0,0,0,18.54878-4.80987,34.58458,34.58458,0,0,0,13.26993-13.824,40.42131,40.42131,0,0,0,4.90046-19.61786q0-12.77568-8.06767-20.791-8.06766-8.01437-20.96021-8.01461a35.0555,35.0555,0,0,0-25.93725,10.97461q-10.78167,10.9746-10.78192,26.94427,0,13.09474,8.06767,21.11637Q596.10159,301.2017,608.99414,301.20119Z" transform="translate(-13.35514 -17.29649)"/><path class="cls-3" d="M680.86839,226.424h10.61475l-1.43345,10.363a30.82572,30.82572,0,0,1,10.22935-9.1908,25.19728,25.19728,0,0,1,12.27643-3.29133,23.26648,23.26648,0,0,1,9.32143,2.11914l-4.99555,9.68781a18.30716,18.30716,0,0,0-6.57366-1.58961,18.65455,18.65455,0,0,0-10.92,3.86141,27.33231,27.33231,0,0,0-8.76537,11.24288q-3.3634,7.38072-5.69176,24.26206l-4.81438,34.8813H669.72962Z" transform="translate(-13.35514 -17.29649)"/><path class="cls-3" d="M729.6843,226.424h10.00463L728.933,308.76985H718.54653Zm8.31342-33.90682a8.4621,8.4621,0,1,1-6.01709,2.49753A8.15827,8.15827,0,0,1,737.99772,192.51718Z" transform="translate(-13.35514 -17.29649)"/><path class="cls-3" d="M799.98346,224.30486A38.13,38.13,0,0,1,819.283,229.338a35.513,35.513,0,0,1,13.69987,14.0017,41.55551,41.55551,0,0,1,4.919,20.32154,47.94786,47.94786,0,0,1-6.28036,24.03033,44.64535,44.64535,0,0,1-16.87908,17.14235,47.49616,47.49616,0,0,1-23.99229,6.05513q-16.57527,0-27.28461-10.861-10.71034-10.859-10.70934-27.663a48.5671,48.5671,0,0,1,6.28186-24.29509,45.73422,45.73422,0,0,1,17.21842-17.44515A46.61676,46.61676,0,0,1,799.98346,224.30486Zm-.26026,10.06619a36.97086,36.97086,0,0,0-18.52575,4.91948A33.82311,33.82311,0,0,0,767.86,252.8007a39.11753,39.11753,0,0,0-4.65972,18.95869q0,13.01818,8.03213,21.15441,8.03313,8.13673,20.763,8.13624a34.92528,34.92528,0,0,0,17.99622-4.73079,33.93023,33.93023,0,0,0,12.843-13.66083A40.00244,40.00244,0,0,0,827.60942,263.51a31.538,31.538,0,0,0-3.5616-15.17486,25.37165,25.37165,0,0,0-10.0782-10.29342A28.53686,28.53686,0,0,0,799.7232,234.37105Z" transform="translate(-13.35514 -17.29649)"/><path class="cls-3" d="M937.5507,212.95187,922.33831,226.424q-9.386-12.10826-17.4837-12.10975a9.57743,9.57743,0,0,0-6.65974,2.38441,7.42662,7.42662,0,0,0-2.64968,5.71428,13.068,13.068,0,0,0,2.42245,6.887q2.42045,3.78609,14.68286,16.72694a111.82656,111.82656,0,0,1,8.55266,9.76338,51.97086,51.97086,0,0,1,7.07616,12.4501,33.46571,33.46571,0,0,1,2.15718,11.76941,29.7964,29.7964,0,0,1-9.53665,22.47775q-9.53616,9.0827-24.44574,9.0832-22.706,0-37.01047-21.57084l16.04525-12.9421q9.68779,14.75844,20.96522,14.75894a12.64406,12.64406,0,0,0,9.04415-3.48152,11.16116,11.16116,0,0,0,3.67072-8.4015,16.1191,16.1191,0,0,0-2.23326-7.871q-2.23276-4.01132-12.75291-15.13732Q883.058,245.19475,879.576,239.215a31.57434,31.57434,0,0,1-4.69275-15.89409,28.265,28.265,0,0,1,6.73582-18.46719q8.47608-10.21708,22.85714-10.21734Q924.23023,194.63633,937.5507,212.95187Z" transform="translate(-13.35514 -17.29649)"/><path class="cls-3" d="M956.12751,226.424h19.99624l-5.74982,42.0811a88.77717,88.77717,0,0,0-.90792,10.44457,12.30738,12.30738,0,0,0,3.78783,9.15827,13.48392,13.48392,0,0,0,9.851,3.70875q7.8049,0,12.01016-4.76882,4.20576-4.76733,6.17725-19.37512l5.63571-41.24875h20.01225l-5.899,44.28733q-2.05107,14.98367-6.86895,23.19147a33.268,33.268,0,0,1-12.78594,12.59776,38.25116,38.25116,0,0,1-18.743,4.38844q-15.17738,0-24.13043-8.74485-8.95506-8.74637-8.95406-22.60288a154.30585,154.30585,0,0,1,1.978-21.79156Z" transform="translate(-13.35514 -17.29649)"/><path class="cls-3" d="M1048.93444,226.424h20.24049l-1.23525,9.00212q10.9701-11.121,24.58689-11.12126a28.034,28.034,0,0,1,10.32645,1.88491,22.83159,22.83159,0,0,1,7.79189,4.82488,23.83607,23.83607,0,0,1,5.10617,8.21682,38.54128,38.54128,0,0,1,13.31547-11.11976,35.192,35.192,0,0,1,15.88608-3.80685,23.05486,23.05486,0,0,1,17.17238,6.936q6.8079,6.93552,6.8099,18.00222a88.8357,88.8357,0,0,1-.75677,10.38451l-6.79187,49.14224h-20.16541l5.78085-42.30832a109.23329,109.23329,0,0,0,1.13515-11.35249q0-5.82739-2.924-8.85547-2.92347-3.02631-8.24034-3.02756a18.25967,18.25967,0,0,0-10.44658,3.67322,23.47626,23.47626,0,0,0-8.05315,9.76839q-2.77481,6.09692-4.67273,20.93769l-4.25831,31.16454h-20.16541l6.1222-44.80585a69.92353,69.92353,0,0,0,.75676-9.34246,11.62006,11.62006,0,0,0-3.11715-8.54514,11.0355,11.0355,0,0,0-8.21232-3.1527,18.23559,18.23559,0,0,0-10.00212,3.37242,22.72556,22.72556,0,0,0-7.98608,9.16878q-2.85139,5.79662-4.44951,17.767l-4.63969,35.538h-20.16541Z" transform="translate(-13.35514 -17.29649)"/><path class="cls-3" d="M1194.62891,226.424h20.24049l-1.23525,9.00212q10.9701-11.121,24.58689-11.12126a28.034,28.034,0,0,1,10.32645,1.88491,22.83159,22.83159,0,0,1,7.79189,4.82488,23.83591,23.83591,0,0,1,5.10616,8.21682,38.5414,38.5414,0,0,1,13.31548-11.11976,35.192,35.192,0,0,1,15.88608-3.80685,23.05486,23.05486,0,0,1,17.17238,6.936q6.8079,6.93552,6.8099,18.00222a88.8357,88.8357,0,0,1-.75677,10.38451l-6.79187,49.14224h-20.16542l5.78086-42.30832a109.23329,109.23329,0,0,0,1.13515-11.35249q0-5.82739-2.924-8.85547-2.92347-3.02631-8.24035-3.02756a18.25966,18.25966,0,0,0-10.44657,3.67322,23.47626,23.47626,0,0,0-8.05315,9.76839q-2.77481,6.09692-4.67273,20.93769l-4.25831,31.16454h-20.16541l6.1222-44.80585a69.92353,69.92353,0,0,0,.75676-9.34246,11.62006,11.62006,0,0,0-3.11715-8.54514,11.0355,11.0355,0,0,0-8.21232-3.1527,18.23559,18.23559,0,0,0-10.00212,3.37242,22.72556,22.72556,0,0,0-7.98608,9.16878q-2.85139,5.79662-4.44951,17.767l-4.63969,35.538h-20.16541Z" transform="translate(-13.35514 -17.29649)"/><path class="cls-3" d="M1390.75543,284.67146l17.786,9.21833a41.2549,41.2549,0,0,1-15.85605,12.42858,51.56116,51.56116,0,0,1-21.91117,4.57063q-18.84558,0-29.70607-10.59573-10.862-10.59623-10.861-28.1555,0-20.055,13.58576-33.94435a44.21634,44.21634,0,0,1,32.8092-13.88856A41.45537,41.45537,0,0,1,1397.227,229.376a36.116,36.116,0,0,1,14.26644,14.75844,43.64713,43.64713,0,0,1,5.22229,21.0408,54.14143,54.14143,0,0,1-.75677,8.32492h-65.6955q.30182,8.5872,5.63871,13.67885,5.3364,5.09164,14.7209,5.09115A29.87732,29.87732,0,0,0,1390.75543,284.67146Zm5.14721-26.00532q-2.27179-7.56766-7.56866-11.46661a20.99052,20.99052,0,0,0-12.791-3.89744,23.50738,23.50738,0,0,0-13.39656,4.01106,24.95911,24.95911,0,0,0-9.08219,11.353Z" transform="translate(-13.35514 -17.29649)"/><path class="cls-3" d="M1434.85407,226.424h18.00822l-1.43745,11.20134q8.09769-13.32,19.45069-13.32048a12.8839,12.8839,0,0,1,5.67674,1.44846l-7.39248,18.37661a11.44135,11.44135,0,0,0-3.37742-.82784q-5.913,0-10.55568,6.84943-4.64421,6.85068-7.33142,27.663l-3.992,30.95533h-20.30055Z" transform="translate(-13.35514 -17.29649)"/><g id="Layer_7" data-name="Layer 7"><path class="cls-3" d="M397.08565,209.39477a49.521,49.521,0,0,0-25.98811-13.69949,70.13292,70.13292,0,0,0-13.23152,9.42891c.52347-.01144,1.03686-.04329,1.566-.04329q16.12107,0,27.62546,9.61924,13.85,11.59023,13.85052,31.35824a55.21009,55.21009,0,0,1-7.30389,27.7611,52.41337,52.41337,0,0,1-20.09434,20.07231,55.47606,55.47606,0,0,1-27.77661,7.23434q-12.64055,0-21.98676-5.15023a36.02617,36.02617,0,0,1-12.72863-11.74776l-7.10964,9.24241a48.84986,48.84986,0,0,0,3.37661,3.71958q14.45587,14.38007,38.524,14.38056,28.3059,0,47.26584-18.69492,18.959-18.69243,18.95919-46.16824Q412.03378,224.15472,397.08565,209.39477Z" transform="translate(-13.35514 -17.29649)"/></g></g></svg>